<?xml version="1.0" encoding="UTF-8" standalone="no" ?>
<!DOCTYPE svg PUBLIC "-//W3C//DTD SVG 1.1//EN" "http://www.w3.org/Graphics/SVG/1.1/DTD/svg11.dtd">
<svg xmlns="http://www.w3.org/2000/svg" xmlns:xlink="http://www.w3.org/1999/xlink" version="1.1" width="92.5" height="92.5" viewBox="0 0 50 50" xml:space="preserve">
<desc>Created with Fabric.js 3.6.3</desc>
<defs>
</defs>
<g transform="matrix(0.76 0 0 0.76 24.28 24.86)"  >
<linearGradient id="SVGID_416" gradientUnits="userSpaceOnUse" gradientTransform="matrix(1 0 0 1 0 0)"  x1="7.68" y1="53.12" x2="56.32" y2="10.88">
<stop offset="0%" style="stop-color:rgba(249, 237, 50, 1);"/>
<stop offset="74.146%" style="stop-color:rgba(238, 42, 123, 1);"/>
<stop offset="100%" style="stop-color:rgba(169, 72, 236, 1);"/>
</linearGradient>
<path style="stroke: none; stroke-width: 1; stroke-dasharray: none; stroke-linecap: butt; stroke-dashoffset: 0; stroke-linejoin: miter; stroke-miterlimit: 4; fill: url(#SVGID_416); fill-rule: evenodd; opacity: 1;"  transform=" translate(-32, -32)" d="M 21.986 40.006 c 1.102 0 1.993 0.893 1.993 1.993 s -0.892 1.992 -1.993 1.992 c -1.1 0 -1.992 -0.892 -1.992 -1.992 S 20.887 40.006 21.986 40.006 L 21.986 40.006 z M 16.145 34.299 c -1.261 -8.749 4.81 -16.862 13.559 -18.123 s 16.863 4.81 18.124 13.559 s -4.81 16.863 -13.559 18.124 c -0.098 0.015 -0.192 0.015 -0.289 0.026 l 0.296 -0.041 c -1.094 0.157 -2.106 -0.602 -2.265 -1.695 c -0.157 -1.093 0.602 -2.108 1.695 -2.267 l -0.003 -0.007 c 0.003 0 0.005 0 0.008 0 c 6.56 -0.945 11.109 -7.028 10.164 -13.588 c -0.945 -6.561 -7.027 -11.11 -13.588 -10.165 c -6.557 0.945 -11.11 7.028 -10.164 13.588 c 0 0.003 0 0.005 0.002 0.005 l -0.007 0.003 l 0 0 c 0.157 1.093 -0.602 2.106 -1.695 2.264 c -1.093 0.157 -2.108 -0.601 -2.267 -1.694 l 0.044 0.298 C 16.186 34.488 16.159 34.396 16.145 34.299 L 16.145 34.299 z M 47.989 13.005 c 0 -1.658 1.346 -3.004 3.006 -3.004 c 1.642 0 2.973 1.318 2.999 2.958 v 0.094 c -0.026 1.64 -1.357 2.958 -2.999 2.958 C 49.335 16.011 47.989 14.665 47.989 13.005 L 47.989 13.005 z M 58.661 58.52 C 55.183 62.034 50.357 64 42.012 64 H 21.986 c -8.345 0 -13.17 -1.966 -16.646 -5.48 C 1.908 55.054 0 50.216 0 42.014 V 21.988 c 0 -8.205 1.908 -13.04 5.34 -16.506 C 8.816 1.967 13.641 0 21.986 0 h 20.025 c 8.346 0 13.171 1.967 16.649 5.482 c 0.223 0.223 0.427 0.468 0.633 0.71 c 0.422 0.366 0.695 0.902 0.695 1.505 c 0 1.105 -0.895 2 -2 2 c -0.604 0 -1.14 -0.274 -1.506 -0.698 l -0.026 0.021 c -0.206 -0.245 -0.399 -0.499 -0.627 -0.728 c -3.042 -3.076 -7.533 -4.283 -14.837 -4.283 H 22.997 c -7.302 0 -11.784 1.207 -14.826 4.283 c -3.003 3.033 -4.171 7.536 -4.171 14.713 v 17.997 c 0 7.18 1.168 11.671 4.171 14.703 c 3.042 3.075 7.524 4.295 14.826 4.295 h 17.997 c 7.304 0 11.795 -1.22 14.837 -4.295 c 3.003 -3.032 4.159 -7.523 4.159 -14.703 V 23.006 c 0 -1.748 -0.072 -3.333 -0.218 -4.78 l 0.009 -0.002 c -0.108 -1.103 0.691 -2.089 1.796 -2.206 c 1.107 -0.114 2.1 0.69 2.213 1.795 c 0.003 0.029 0 0.056 0 0.085 h 0.005 C 63.916 19.172 64 20.507 64 21.988 v 20.025 C 64 50.216 62.09 55.054 58.661 58.52 L 58.661 58.52 z" stroke-linecap="round" />
</g>
</svg>