<svg width="703" height="302" viewBox="0 0 703 302" fill="none" xmlns="http://www.w3.org/2000/svg">
<path d="M154.304 167.988C154.31 167.064 154.126 166.148 153.762 165.298C153.399 164.448 152.865 163.682 152.192 163.048C151.52 162.414 150.723 161.926 149.854 161.613C148.984 161.301 148.059 161.171 147.137 161.232C146.215 161.293 145.315 161.543 144.494 161.967C143.673 162.392 142.948 162.981 142.364 163.698C141.781 164.415 141.352 165.244 141.104 166.134C140.855 167.024 140.793 167.956 140.921 168.872L121.603 194.169C120.779 195.818 120.459 197.673 120.684 199.502C120.91 201.332 121.67 203.054 122.869 204.453L124.384 206.221L131.337 204.831L139.218 197.877L138.29 189.997L148.025 174.7L148.012 174.69C149.716 174.581 151.315 173.828 152.483 172.583C153.652 171.338 154.303 169.695 154.304 167.988V167.988Z" fill="#FFB9B9"/>
<path d="M20.7149 291.664L17.5615 279.952L61.233 262.217L65.8869 279.502L20.7149 291.664Z" fill="#FFB8B8"/>
<path d="M10.167 297.707L0 259.945L0.477621 259.816C4.37571 258.767 8.531 259.309 12.0295 261.323C15.528 263.337 18.0832 266.658 19.1331 270.556L19.1334 270.557L25.3429 293.621L10.167 297.707Z" fill="#2F2E41"/>
<path d="M80.8709 289.792L71.0625 282.659L93.9085 241.431L108.385 251.959L80.8709 289.792Z" fill="#FFB8B8"/>
<path d="M76.4577 301.12L44.8301 278.119L45.121 277.719C47.4954 274.454 51.0693 272.266 55.0568 271.637C59.0442 271.007 63.1185 271.987 66.3836 274.361L66.3843 274.361L85.7014 288.409L76.4577 301.12Z" fill="#2F2E41"/>
<path d="M164.249 232.179L139.566 208.201C137.411 206.109 134.574 204.864 131.575 204.697C128.577 204.529 125.619 205.45 123.245 207.29L76.6396 259.065L80.8116 265.554L125.311 235.424L155.441 274.825L184.181 260.455L164.249 232.179Z" fill="#2F2E41"/>
<path d="M153.587 237.278L135.509 235.888L122.417 232.714C121.678 231.56 120.603 230.66 119.338 230.133C118.073 229.607 116.677 229.48 115.337 229.769C113.998 230.058 112.779 230.749 111.843 231.75C110.907 232.751 110.299 234.014 110.101 235.37C109.903 236.726 110.124 238.11 110.734 239.337C111.344 240.564 112.314 241.575 113.515 242.236C114.716 242.896 116.09 243.174 117.453 243.031C118.816 242.889 120.103 242.334 121.141 241.441L121.139 241.45L129.02 244.695L162.858 256.283L167.03 253.038L153.587 237.278Z" fill="#FFB9B9"/>
<path d="M197.16 287.341L186.962 293.83H174.91L118.822 272.971L36.7756 287.804L34.458 270.189L109.552 237.279L175.374 259.065L197.16 287.341Z" fill="#2F2E41"/>
<path d="M175.374 174.7C185.358 174.7 193.452 166.607 193.452 156.622C193.452 146.638 185.358 138.544 175.374 138.544C165.39 138.544 157.296 146.638 157.296 156.622C157.296 166.607 165.39 174.7 175.374 174.7Z" fill="#FFB9B9"/>
<path d="M222.15 228.8C222.15 239.71 220.431 250.553 217.056 260.928L215.702 265.091L209.213 294.757L202.26 296.611L197.161 290.122L186.963 282.705L179.546 270.653L173.187 260.057L171.203 256.747L164.249 221.981L137.828 207.148L129.021 205.758L130.875 200.659L138.755 189.997L146.635 189.07L148.953 187.216L150.807 188.143L161.028 192.081L194.166 178.08L199.015 178.872L215.702 192.778C219.968 204.309 222.151 216.506 222.15 228.8V228.8Z" fill="#CCCCCC"/>
<path opacity="0.1" d="M217.092 224.763L199.478 236.351L173.186 260.056L171.202 256.747L165.64 228.935H167.03L181.4 202.513L217.092 224.763Z" fill="black"/>
<path d="M181.4 199.732L167.03 226.153L158.687 235.424L151.271 237.278L171.202 259.064L199.478 233.57L217.092 221.981L181.4 199.732Z" fill="#CCCCCC"/>
<path d="M161.313 143.181L159.355 143.934C159.057 143.733 158.803 143.475 158.605 143.175C158.407 142.875 158.271 142.54 158.203 142.187C158.135 141.834 158.137 141.472 158.209 141.12C158.282 140.768 158.422 140.434 158.624 140.137C158.634 140.121 158.645 140.106 158.656 140.091L155.036 139.921C157.36 136.827 160.314 134.261 163.703 132.393C167.093 130.526 170.84 129.399 174.697 129.088C178.555 128.777 182.434 129.289 186.079 130.59C189.724 131.89 193.051 133.95 195.84 136.632C196.005 136.065 197.801 137.169 198.535 138.289C198.781 137.365 200.466 141.83 201.061 144.986C201.337 143.935 202.398 145.631 201.469 147.259C202.057 147.173 202.323 148.679 201.867 149.518C202.511 149.216 202.403 151.014 201.705 152.215C202.624 152.133 201.626 171.062 187.835 169.683C186.875 165.271 187.145 165.545 186.015 159.873C185.489 159.314 184.912 158.805 184.337 158.297L181.225 155.551C177.607 152.357 174.315 148.415 169.495 147.221C166.182 146.401 164.088 146.216 165.893 142.483C164.262 143.163 162.739 144.176 161.093 144.808C161.115 144.286 161.345 143.702 161.313 143.181Z" fill="#2F2E41"/>
<path d="M184.413 161.953C186.205 161.953 187.658 160.5 187.658 158.708C187.658 156.916 186.205 155.464 184.413 155.464C182.621 155.464 181.168 156.916 181.168 158.708C181.168 160.5 182.621 161.953 184.413 161.953Z" fill="#FFB9B9"/>
<path d="M33.0966 82.0736L32.1064 96.9422L46.9751 97.9324L47.9653 83.0638L33.0966 82.0736Z" fill="#28CFC6"/>
<path d="M23.5041 89.9688L41.5589 91.1712L40.3565 109.226L22.3018 108.024L23.5041 89.9688ZM40.7216 91.9039L24.2369 90.8061L23.139 107.291L39.6238 108.389L40.7216 91.9039Z" fill="#CCCCCC"/>
<path d="M117.123 37.9838L102.554 41.1143L105.684 55.6833L120.253 52.5528L117.123 37.9838Z" fill="#28CFC6"/>
<path d="M106.897 30.9271L110.698 48.618L93.0073 52.4193L89.2061 34.7283L106.897 30.9271ZM109.764 48.0141L106.293 31.8615L90.1405 35.3322L93.6112 51.4848L109.764 48.0141Z" fill="#CCCCCC"/>
<path d="M101.813 107.949L90.9375 118.136L101.124 129.012L112 118.825L101.813 107.949Z" fill="#28CFC6"/>
<path d="M112.783 106.425L99.5769 118.795L87.207 105.589L100.413 93.2192L112.783 106.425ZM99.6133 117.683L111.671 106.389L100.377 94.3313L88.319 105.626L99.6133 117.683Z" fill="#CCCCCC"/>
<path d="M664.242 0H223.346C221.753 -1.81109e-06 220.175 0.313885 218.702 0.92374C217.23 1.53359 215.892 2.42747 214.765 3.55434C213.638 4.6812 212.745 6.01899 212.135 7.49131C211.525 8.96363 211.211 10.5417 211.211 12.1353V257.794C211.211 259.388 211.525 260.966 212.135 262.438C212.745 263.91 213.638 265.248 214.765 266.375C215.892 267.502 217.23 268.396 218.702 269.006C220.175 269.616 221.753 269.929 223.346 269.929H664.242C667.46 269.929 670.547 268.651 672.823 266.375C675.099 264.099 676.377 261.013 676.377 257.794V12.1353C676.377 8.9168 675.099 5.83015 672.823 3.55435C670.547 1.27854 667.46 1.82884e-06 664.242 0V0Z" fill="#3F3D56"/>
<path d="M660.107 21.4465H227.48V265.492H660.107V21.4465Z" fill="white"/>
<path d="M443.425 14.7907C445.875 14.7907 447.862 12.8041 447.862 10.3535C447.862 7.90292 445.875 5.91632 443.425 5.91632C440.974 5.91632 438.987 7.90292 438.987 10.3535C438.987 12.8041 440.974 14.7907 443.425 14.7907Z" fill="white"/>
<path d="M536.383 265.493H227.48V21.4468L536.383 265.493Z" fill="#F2F2F2"/>
<path d="M295.173 247.23C318.14 247.23 336.759 228.612 336.759 205.645C336.759 182.678 318.14 164.059 295.173 164.059C272.206 164.059 253.588 182.678 253.588 205.645C253.588 228.612 272.206 247.23 295.173 247.23Z" fill="#28CFC6"/>
<path d="M304.43 236.9C294.199 236.9 284.198 233.866 275.692 228.182C267.185 222.499 260.555 214.42 256.64 204.968C252.725 195.515 251.7 185.115 253.696 175.08C255.692 165.046 260.619 155.829 267.853 148.595C275.087 141.36 284.304 136.434 294.339 134.438C304.373 132.442 314.774 133.466 324.226 137.381C333.678 141.297 341.757 147.927 347.441 156.433C353.125 164.94 356.159 174.941 356.159 185.172C356.159 191.965 354.821 198.692 352.221 204.968C349.621 211.244 345.811 216.946 341.008 221.749C336.204 226.553 330.502 230.363 324.226 232.963C317.95 235.562 311.223 236.9 304.43 236.9V236.9ZM304.43 134.12C294.333 134.12 284.463 137.114 276.067 142.724C267.672 148.333 261.128 156.307 257.264 165.635C253.4 174.964 252.389 185.229 254.359 195.132C256.329 205.035 261.191 214.131 268.331 221.271C275.471 228.411 284.567 233.273 294.471 235.243C304.374 237.213 314.639 236.202 323.967 232.338C333.296 228.474 341.269 221.931 346.879 213.535C352.488 205.14 355.482 195.269 355.482 185.172C355.482 178.468 354.162 171.829 351.596 165.635C349.031 159.441 345.27 153.813 340.53 149.073C335.789 144.332 330.161 140.572 323.967 138.006C317.773 135.441 311.135 134.12 304.43 134.12L304.43 134.12Z" fill="#3F3D56"/>
<path d="M559.955 148.235H519.543V156.68H559.955V148.235Z" fill="#3F3D56"/>
<path d="M598.189 102.488H481.31V106.107H598.189V102.488Z" fill="#3F3D56"/>
<path d="M598.189 116.706H481.31V120.325H598.189V116.706Z" fill="#3F3D56"/>
<path d="M598.189 130.924H481.31V134.543H598.189V130.924Z" fill="#3F3D56"/>
<path d="M629.499 36.0516H612.61V52.9403H629.499V36.0516Z" fill="#28CFC6"/>
<path d="M637.34 60.7813H616.832V40.2737H637.34V60.7813ZM617.724 59.8897H636.448V41.1654H617.724L617.724 59.8897Z" fill="#CCCCCC"/>
<path d="M688.523 261.055H646.302V258.013C646.302 257.934 646.286 257.855 646.256 257.782C646.225 257.709 646.181 257.643 646.125 257.587C646.069 257.531 646.003 257.486 645.929 257.456C645.856 257.426 645.778 257.41 645.699 257.41H631.223C631.143 257.41 631.065 257.426 630.992 257.456C630.919 257.486 630.852 257.531 630.796 257.587C630.74 257.643 630.696 257.709 630.665 257.782C630.635 257.855 630.619 257.934 630.619 258.013V261.055H621.572V258.013C621.572 257.934 621.556 257.855 621.526 257.782C621.496 257.709 621.451 257.643 621.395 257.587C621.339 257.531 621.273 257.486 621.2 257.456C621.126 257.426 621.048 257.41 620.969 257.41H606.493C606.414 257.41 606.335 257.426 606.262 257.456C606.189 257.486 606.122 257.531 606.066 257.587C606.01 257.643 605.966 257.709 605.936 257.782C605.905 257.855 605.89 257.934 605.89 258.013V258.013V261.055H596.842V258.013C596.842 257.934 596.827 257.855 596.796 257.782C596.766 257.709 596.722 257.643 596.666 257.587C596.61 257.531 596.543 257.486 596.47 257.456C596.397 257.426 596.318 257.41 596.239 257.41H581.763C581.684 257.41 581.605 257.426 581.532 257.456C581.459 257.486 581.393 257.531 581.337 257.587C581.281 257.643 581.236 257.709 581.206 257.782C581.175 257.855 581.16 257.934 581.16 258.013V258.013V261.055H572.112V258.013C572.112 257.934 572.097 257.855 572.067 257.782C572.036 257.709 571.992 257.643 571.936 257.587C571.88 257.531 571.813 257.486 571.74 257.456C571.667 257.426 571.589 257.41 571.509 257.41H557.033C556.954 257.41 556.876 257.426 556.802 257.456C556.729 257.486 556.663 257.531 556.607 257.587C556.551 257.643 556.506 257.709 556.476 257.782C556.446 257.855 556.43 257.934 556.43 258.013V261.055H547.383V258.013C547.383 257.934 547.367 257.855 547.337 257.782C547.306 257.709 547.262 257.643 547.206 257.587C547.15 257.531 547.084 257.486 547.01 257.456C546.937 257.426 546.859 257.41 546.78 257.41H532.304C532.224 257.41 532.146 257.426 532.073 257.456C532 257.486 531.933 257.531 531.877 257.587C531.821 257.643 531.777 257.709 531.746 257.782C531.716 257.855 531.7 257.934 531.7 258.013V258.013V261.055H522.653V258.013C522.653 257.934 522.637 257.855 522.607 257.782C522.577 257.709 522.532 257.643 522.476 257.587C522.42 257.531 522.354 257.486 522.281 257.456C522.207 257.426 522.129 257.41 522.05 257.41H507.574C507.495 257.41 507.416 257.426 507.343 257.456C507.27 257.486 507.203 257.531 507.147 257.587C507.091 257.643 507.047 257.709 507.017 257.782C506.986 257.855 506.971 257.934 506.971 258.013V258.013V261.055H497.923V258.013C497.923 257.934 497.908 257.855 497.877 257.782C497.847 257.709 497.803 257.643 497.747 257.587C497.691 257.531 497.624 257.486 497.551 257.456C497.478 257.426 497.399 257.41 497.32 257.41H383.925C383.846 257.41 383.767 257.426 383.694 257.456C383.621 257.486 383.555 257.531 383.498 257.587C383.442 257.643 383.398 257.709 383.368 257.782C383.337 257.855 383.322 257.934 383.322 258.013V258.013V261.055H374.274V258.013C374.274 257.934 374.259 257.855 374.228 257.782C374.198 257.709 374.154 257.643 374.098 257.587C374.042 257.531 373.975 257.486 373.902 257.456C373.829 257.426 373.75 257.41 373.671 257.41H359.195C359.116 257.41 359.038 257.426 358.964 257.456C358.891 257.486 358.825 257.531 358.769 257.587C358.713 257.643 358.668 257.709 358.638 257.782C358.608 257.855 358.592 257.934 358.592 258.013V258.013V261.055H349.545V258.013C349.545 257.934 349.529 257.855 349.499 257.782C349.468 257.709 349.424 257.643 349.368 257.587C349.312 257.531 349.245 257.486 349.172 257.456C349.099 257.426 349.021 257.41 348.941 257.41H334.465C334.386 257.41 334.308 257.426 334.235 257.456C334.161 257.486 334.095 257.531 334.039 257.587C333.983 257.643 333.939 257.709 333.908 257.782C333.878 257.855 333.862 257.934 333.862 258.013V258.013V261.055H324.815V258.013C324.815 257.934 324.799 257.855 324.769 257.782C324.739 257.709 324.694 257.643 324.638 257.587C324.582 257.531 324.516 257.486 324.442 257.456C324.369 257.426 324.291 257.41 324.212 257.41H309.736C309.656 257.41 309.578 257.426 309.505 257.456C309.432 257.486 309.365 257.531 309.309 257.587C309.253 257.643 309.209 257.709 309.178 257.782C309.148 257.855 309.133 257.934 309.133 258.013V258.013V261.055H300.085V258.013C300.085 257.934 300.069 257.855 300.039 257.782C300.009 257.709 299.964 257.643 299.908 257.587C299.852 257.531 299.786 257.486 299.713 257.456C299.64 257.426 299.561 257.41 299.482 257.41H285.006C284.927 257.41 284.848 257.426 284.775 257.456C284.702 257.486 284.635 257.531 284.579 257.587C284.523 257.643 284.479 257.709 284.449 257.782C284.418 257.855 284.403 257.934 284.403 258.013V258.013V261.055H275.355V258.013C275.355 257.934 275.34 257.855 275.309 257.782C275.279 257.709 275.235 257.643 275.179 257.587C275.123 257.531 275.056 257.486 274.983 257.456C274.91 257.426 274.831 257.41 274.752 257.41H260.276C260.116 257.41 259.963 257.473 259.85 257.587C259.737 257.7 259.673 257.853 259.673 258.013V261.055H250.626V258.013C250.626 257.934 250.61 257.855 250.58 257.782C250.549 257.709 250.505 257.643 250.449 257.587C250.393 257.531 250.326 257.486 250.253 257.456C250.18 257.426 250.102 257.41 250.022 257.41H235.546C235.386 257.41 235.233 257.473 235.12 257.587C235.007 257.7 234.943 257.853 234.943 258.013V261.055H207.198C203.358 261.055 199.676 262.58 196.962 265.295C194.247 268.01 192.722 271.692 192.722 275.531V282.077C192.722 285.916 194.247 289.598 196.962 292.313C199.676 295.028 203.358 296.553 207.198 296.553H688.523C692.363 296.553 696.045 295.028 698.759 292.313C701.474 289.598 702.999 285.916 702.999 282.077V275.531C702.999 273.63 702.625 271.748 701.897 269.991C701.17 268.235 700.104 266.639 698.759 265.295C697.415 263.951 695.819 262.885 694.063 262.157C692.307 261.43 690.424 261.055 688.523 261.055V261.055Z" fill="#3F3D56"/>
</svg>
