<svg width="1746" height="1040" viewBox="0 0 1746 1040" fill="none" xmlns="http://www.w3.org/2000/svg">
<path d="M1329.15 221.892C1329.15 221.892 1064.75 167.312 1011.1 442.082C978.377 609.671 1128.45 712.126 1221.86 718.757C1566.74 743.226 1557.52 376.555 1557.52 376.555" stroke="#CDD0C4" stroke-miterlimit="10" stroke-dasharray="4 4"/>
<path d="M949.569 939.133C948.409 938.628 947.249 938.124 946.089 937.582" stroke="#CDD0C4" stroke-miterlimit="10"/>
<path d="M939.375 934.332C841.803 883.917 823.11 746.308 823.11 746.308L821.132 712.518" stroke="#CDD0C4" stroke-miterlimit="10" stroke-dasharray="3.94 3.94"/>
<path d="M820.924 708.838L820.715 705.102" stroke="#CDD0C4" stroke-miterlimit="10"/>
<path d="M875.764 709.492H728.464C723.539 709.492 719.564 705.569 719.564 700.75V610.829C719.564 605.991 723.558 602.087 728.464 602.087H875.764C880.69 602.087 884.664 606.01 884.664 610.829V700.75C884.664 705.569 880.69 709.492 875.764 709.492Z" stroke="#F6A915" stroke-width="1.3061" stroke-miterlimit="10"/>
<path d="M868.862 671.461H826.893C823.946 671.461 821.55 669.108 821.55 666.212V634.981C821.55 632.086 823.946 629.732 826.893 629.732H868.843C871.791 629.732 874.187 632.086 874.187 634.981V666.212C874.206 669.108 871.81 671.461 868.862 671.461Z" fill="#CDD0C4"/>
<path d="M884.151 610.511C884.151 605.673 880.158 601.769 875.252 601.769H727.951C723.026 601.769 719.052 605.692 719.052 610.511V611.987L884.189 612.846L884.151 610.511Z" fill="#F6A915"/>
<path d="M872.514 695.408L868.691 720.961L878.219 712.443L891.644 713.433L872.514 695.408Z" fill="#23B3AB"/>
<path d="M788.9 634.495C795.936 634.495 802.991 634.495 810.027 634.495" stroke="#CDD0C4" stroke-width="0.718" stroke-miterlimit="10"/>
<path d="M731.793 634.495C749.421 634.495 767.049 634.495 784.658 634.495" stroke="#CDD0C4" stroke-width="0.718" stroke-miterlimit="10"/>
<path d="M767.771 643.162C781.863 643.162 795.954 643.162 810.026 643.162" stroke="#CDD0C4" stroke-width="0.718" stroke-miterlimit="10"/>
<path d="M731.793 643.162C742.271 643.162 752.749 643.162 763.227 643.162" stroke="#CDD0C4" stroke-width="0.718" stroke-miterlimit="10"/>
<path d="M800.765 651.829C803.845 651.829 806.945 651.829 810.026 651.829" stroke="#CDD0C4" stroke-width="0.718" stroke-miterlimit="10"/>
<path d="M731.793 651.829C752.901 651.829 775.911 651.829 796.601 651.829" stroke="#CDD0C4" stroke-width="0.718" stroke-miterlimit="10"/>
<path d="M768.341 660.048C782.242 660.048 796.143 660.048 810.025 660.048" stroke="#CDD0C4" stroke-width="0.718" stroke-miterlimit="10"/>
<path d="M731.793 660.048C742.651 660.048 753.51 660.048 764.349 660.048" stroke="#CDD0C4" stroke-width="0.718" stroke-miterlimit="10"/>
<path d="M782.49 669.164C791.675 669.164 800.841 669.164 810.026 669.164" stroke="#CDD0C4" stroke-width="0.718" stroke-miterlimit="10"/>
<path d="M731.793 669.164C747.196 669.164 762.618 669.164 778.022 669.164" stroke="#CDD0C4" stroke-width="0.718" stroke-miterlimit="10"/>
<path d="M779.22 691.112H737.422C734.303 691.112 731.755 688.627 731.755 685.545C731.755 682.482 734.284 679.979 737.422 679.979H779.22C782.338 679.979 784.886 682.463 784.886 685.545C784.886 688.609 782.338 691.112 779.22 691.112Z" fill="#23B3AB"/>
<path d="M1663 151.696H1563.36C1560.03 151.696 1557.33 149.044 1557.33 145.775V84.9559C1557.33 81.687 1560.03 79.0346 1563.36 79.0346H1663C1666.33 79.0346 1669.03 81.687 1669.03 84.9559V145.775C1669.03 149.044 1666.33 151.696 1663 151.696Z" stroke="#F6A915" stroke-width="0.8834" stroke-miterlimit="10"/>
<path d="M1658.35 125.975H1629.97C1627.98 125.975 1626.36 124.388 1626.36 122.426V101.281C1626.36 99.3201 1627.98 97.7324 1629.97 97.7324H1658.35C1660.34 97.7324 1661.96 99.3201 1661.96 101.281V122.408C1661.96 124.369 1660.34 125.975 1658.35 125.975Z" fill="#CDD0C4"/>
<path d="M1668.69 84.7504C1668.69 81.4816 1665.99 78.8292 1662.66 78.8292H1563.02C1559.69 78.8292 1556.99 81.4816 1556.99 84.7504V85.7404L1668.69 86.3195V84.7504Z" fill="#F6A915"/>
<path d="M1660.82 142.17L1658.23 159.448L1664.68 153.695L1673.75 154.367L1660.82 142.17Z" fill="#23B3AB"/>
<path d="M1604.26 100.964C1609.04 100.964 1613.79 100.964 1618.56 100.964" stroke="#CDD0C4" stroke-width="0.4856" stroke-miterlimit="10"/>
<path d="M1565.64 100.964C1577.56 100.964 1589.49 100.964 1601.41 100.964" stroke="#CDD0C4" stroke-width="0.4856" stroke-miterlimit="10"/>
<path d="M1589.96 106.829C1599.49 106.829 1609.02 106.829 1618.54 106.829" stroke="#CDD0C4" stroke-width="0.4856" stroke-miterlimit="10"/>
<path d="M1565.64 106.829C1572.73 106.829 1579.81 106.829 1586.9 106.829" stroke="#CDD0C4" stroke-width="0.4856" stroke-miterlimit="10"/>
<path d="M1612.29 112.694C1614.38 112.694 1616.47 112.694 1618.56 112.694" stroke="#CDD0C4" stroke-width="0.4856" stroke-miterlimit="10"/>
<path d="M1565.64 112.694C1579.92 112.694 1595.48 112.694 1609.47 112.694" stroke="#CDD0C4" stroke-width="0.4856" stroke-miterlimit="10"/>
<path d="M1590.34 118.261C1599.74 118.261 1609.15 118.261 1618.54 118.261" stroke="#CDD0C4" stroke-width="0.4856" stroke-miterlimit="10"/>
<path d="M1565.64 118.261C1572.98 118.261 1580.32 118.261 1587.66 118.261" stroke="#CDD0C4" stroke-width="0.4856" stroke-miterlimit="10"/>
<path d="M1599.93 124.425C1606.13 124.425 1612.34 124.425 1618.54 124.425" stroke="#CDD0C4" stroke-width="0.4856" stroke-miterlimit="10"/>
<path d="M1565.64 124.425C1576.06 124.425 1586.48 124.425 1596.92 124.425" stroke="#CDD0C4" stroke-width="0.4856" stroke-miterlimit="10"/>
<path d="M1597.72 139.256H1569.44C1567.33 139.256 1565.62 137.575 1565.62 135.502C1565.62 133.428 1567.33 131.747 1569.44 131.747H1597.72C1599.83 131.747 1601.54 133.428 1601.54 135.502C1601.54 137.575 1599.83 139.256 1597.72 139.256Z" fill="#23B3AB"/>
<path d="M1081.35 415.053C1088.14 408.385 1101.74 384.363 1086.81 381.692C1071.88 379.021 1031.21 448.302 1016.96 438.309C1002.72 428.315 1077.32 313.756 1045.45 298.439C1026.05 289.119 1005.69 303.52 986.404 316.483C964.744 331.016 945.252 344.016 945.709 325.169C945.937 315.886 1006.77 256 954.551 220.025C925.609 200.075 872.591 230.093 821.856 259.12C781.085 282.45 738.07 312.206 696.215 286.765C634.26 249.127 649.777 2.95463 469.559 -4.18079H-18.6846V796.107C-18.6846 796.107 18.2832 942.85 226.208 921.668C434.132 900.486 600.639 673.068 627.262 654.463C667.063 626.65 702.357 638.586 683.873 677.924C665.389 717.262 694.104 750.847 750.221 714.423C851.958 648.392 930.8 368.729 1008.61 349.807C1026.55 345.436 957.632 471.165 1004.16 468.998C1024.97 468.027 1072.62 400.427 1077.51 396.953C1095.46 384.195 1078.9 414.044 1078.9 414.044L1081.35 415.053Z" fill="#23B3AB"/>
<path d="M1534.09 392.227C1565.79 392.227 1591.48 366.988 1591.48 335.854C1591.48 304.719 1565.79 279.48 1534.09 279.48C1502.39 279.48 1476.7 304.719 1476.7 335.854C1476.7 366.988 1502.39 392.227 1534.09 392.227Z" fill="#30B47A"/>
<path d="M1538.9 385.914C1570.6 385.914 1596.29 360.674 1596.29 329.54C1596.29 298.406 1570.6 273.167 1538.9 273.167C1507.21 273.167 1481.51 298.406 1481.51 329.54C1481.51 360.674 1507.21 385.914 1538.9 385.914Z" stroke="#0C8563" stroke-width="2" stroke-miterlimit="10"/>
<path d="M1508.91 340.654L1522.95 354.421L1564.4 313.7" stroke="white" stroke-width="4.6663" stroke-miterlimit="10"/>
<path d="M1082 712.929C1109.88 712.929 1132.49 690.725 1132.49 663.336C1132.49 635.946 1109.88 613.743 1082 613.743C1054.11 613.743 1031.51 635.946 1031.51 663.336C1031.51 690.725 1054.11 712.929 1082 712.929Z" fill="#FF5940"/>
<path d="M1086.24 707.381C1114.12 707.381 1136.73 685.178 1136.73 657.788C1136.73 630.399 1114.12 608.195 1086.24 608.195C1058.36 608.195 1035.75 630.399 1035.75 657.788C1035.75 685.178 1058.36 707.381 1086.24 707.381Z" stroke="#D15036" stroke-width="1.7593" stroke-miterlimit="10"/>
<path d="M1080.88 668.585C1091.17 668.585 1099.51 660.389 1099.51 650.279C1099.51 640.169 1091.17 631.974 1080.88 631.974C1070.58 631.974 1062.24 640.169 1062.24 650.279C1062.24 660.389 1070.58 668.585 1080.88 668.585Z" stroke="white" stroke-width="3.5186" stroke-miterlimit="10"/>
<path d="M1093.86 665.503L1109.32 680.689L1093.86 665.503Z" stroke="white" stroke-width="3.5186" stroke-miterlimit="10"/>
<path d="M1278.02 368.243C1279.41 364.732 1280.17 360.996 1280.28 357.241C1280.3 356.475 1279.62 355.84 1278.86 355.84C1278.06 355.84 1277.45 356.475 1277.43 357.241C1277.32 360.772 1276.57 364.227 1275.28 367.496C1275 368.206 1275.58 369.028 1276.27 369.215C1277.07 369.439 1277.73 368.953 1278.02 368.243Z" fill="#221660"/>
<path d="M1472.99 588.937L1555.49 715.301C1555.49 715.301 1605.59 623.288 1613.03 613.799C1620.46 604.31 1692.9 643.797 1692.9 643.797C1692.9 643.797 1651.54 725.986 1630.77 773.225C1614.57 810.06 1521.33 803.579 1521.33 803.579L1450.78 702.17L1472.99 588.937Z" fill="#23B3AB"/>
<path d="M1692.88 643.797C1692.88 643.797 1620.45 604.31 1613.01 613.799C1613.01 613.799 1625.64 586.882 1630.66 584.529C1644.5 578.047 1749 633.954 1745.93 636.232C1739.6 640.902 1696.68 632.758 1696.68 632.758L1692.88 643.797Z" fill="#221660"/>
<path d="M1326.77 686.386C1340.09 712.387 1430.68 862.679 1468.56 885.281C1506.44 907.883 1606.69 864.136 1669.09 842.244L1639.38 760.523L1522.03 790.428L1463.37 707.998C1463.37 707.998 1499.65 623.064 1472.97 588.937L1326.77 686.386Z" fill="#23B3AB"/>
<path d="M1344.57 725.033L1489.06 647.627L1493.93 619.085L1344.57 725.033Z" fill="#221660"/>
<path d="M1355.21 427.082C1364.85 422.487 1456.07 439.878 1456.07 439.878L1446.12 508.841L1398.58 499.072L1355.21 427.082Z" fill="#F6A915"/>
<path d="M1446.12 508.841L1406.43 500.361L1374.11 447.891C1374.11 447.891 1387.15 451.645 1399.26 460.929C1399.91 461.415 1423.57 475.966 1424.2 476.489C1434.58 485.044 1450.02 479.776 1450.02 479.776L1446.12 508.841Z" fill="#F68E15"/>
<path d="M1053.24 473.089C1041.45 464.478 1032.69 447.611 1033.03 437.337C1033.37 427.082 1039.44 415.819 1045.5 413.839C1051.57 411.859 1051.91 419.144 1050.22 424.43C1048.53 429.716 1048.53 441.316 1048.53 441.316L1053.24 473.089Z" fill="#FE9DA7"/>
<path d="M1050.22 424.43C1048.53 429.735 1048.53 441.316 1048.53 441.316L1053.24 473.089C1053.24 473.089 1043.72 459.154 1040.54 443.52C1037.37 427.886 1050.22 424.43 1050.22 424.43Z" fill="#FF6688"/>
<path d="M1210.17 369.532C1200.58 387.109 1216.97 438.178 1218.29 441.335C1221.22 448.414 1226.41 468.12 1264.71 452.729L1273.34 469.11C1273.34 469.11 1319.23 449.89 1322.71 443.053C1322.71 443.053 1314 428.278 1304.18 407.077C1295.02 387.277 1285.3 361.126 1269.35 356.998C1236.28 348.443 1218.88 353.58 1210.17 369.532Z" fill="#FE9DA7"/>
<path d="M1193.36 390.042C1193.36 390.042 1202.07 409.991 1238.03 392.321C1238.03 392.321 1243.26 402.015 1253.7 402.575L1255.45 414.549L1264.15 411.13C1264.15 411.13 1267.63 444.753 1274.02 447.611C1280.41 450.469 1311.73 436.777 1315.8 430.519C1317.32 428.166 1312.67 403.64 1311.73 391.76C1310.19 371.96 1310.54 352.571 1290.57 362.378C1290.57 362.378 1283.67 347.304 1276.71 343.325C1269.75 339.328 1262.42 346.744 1262.42 346.744C1262.42 346.744 1256.04 329.073 1237.48 331.352C1218.92 333.631 1214.85 345.025 1214.85 345.025C1214.85 345.025 1187.01 323.936 1166.11 351.301C1150.21 372.11 1171.91 394.618 1183.51 392.339L1193.36 390.042Z" fill="#221660"/>
<path d="M1080.21 451.907C1072.45 453.233 1065.05 445.612 1063.02 442.306C1061 439 1063.8 435.17 1073.8 423.104C1081.22 414.175 1073.46 409.86 1065.03 413.839C1065.03 413.839 1047.18 422.114 1043.47 434.685C1038.53 451.459 1055.6 477.721 1055.6 477.721C1055.6 477.721 1070.76 525.708 1104.8 566.429C1131.74 598.669 1155.68 593.569 1169.49 593.233C1183.32 592.897 1225.82 574.685 1225.82 574.685L1184.3 516.742L1155.32 528.361C1131.06 507.832 1104.44 460.182 1104.44 460.182L1080.21 451.907Z" fill="#FE9DA7"/>
<path d="M1073.8 423.104C1063.8 435.17 1061 439 1063.02 442.306C1065.03 445.612 1072.45 453.233 1080.21 451.907L1067.47 456.128L1063.84 463.918C1063.84 463.918 1055.56 449.946 1057.56 440.849C1059.54 431.752 1073.8 423.104 1073.8 423.104Z" fill="#FF6688"/>
<path d="M1184.32 516.742L1225.84 574.685C1225.84 574.685 1210.38 581.316 1195.07 586.639C1191.74 587.797 1203.34 582.25 1201.76 572.032C1198.53 551.336 1184.32 516.742 1184.32 516.742Z" fill="#FF6688"/>
<path d="M1455.95 440.905C1455.31 441.148 1490.01 449.852 1499.25 445.5C1512.18 439.411 1530.69 395.926 1530.69 395.926C1530.69 395.926 1523.5 372.035 1528.48 369.868C1533.46 367.702 1537.87 380.179 1537.87 380.179C1537.87 380.179 1545.61 340.542 1550.6 341.084C1555.58 341.626 1557.42 349.676 1557.52 361.145C1557.52 361.145 1558.94 365.18 1560.05 360.828C1561.15 356.475 1563.64 341.906 1568.6 340.262C1573.59 338.637 1576.76 354.626 1574.01 365.497C1574.01 365.497 1583.61 346.893 1586.37 347.435C1589.12 347.976 1592.58 359.539 1586.52 372.577C1586.52 372.577 1594.6 362.359 1597.36 363.984C1600.11 365.609 1598.25 382.066 1583.78 403.323C1583.78 403.323 1577.94 474.172 1527.07 502.957C1509.37 512.969 1487.37 514.351 1467.86 511.232C1455.13 509.196 1446.1 506.693 1446.1 506.693L1455.95 440.905Z" fill="#FE9DA7"/>
<path d="M1261.21 416.958C1265.45 404.443 1268.95 402.594 1275.01 409.748C1281.08 416.902 1273.95 431.267 1265.45 430.669C1256.95 430.071 1261.21 416.958 1261.21 416.958Z" fill="#FE9DA7"/>
<path d="M1639.4 760.523C1639.4 760.523 1668.12 749.615 1674.38 752.342C1680.63 755.069 1729.73 868.563 1726.96 884.254C1724.18 899.944 1680.25 837.911 1680.25 837.911L1669.09 842.244L1639.4 760.523Z" fill="#221660"/>
<path d="M1181.87 509.98C1183.03 520.235 1220.61 576.385 1225.84 574.685C1229.32 573.545 1254.27 561.012 1254.27 561.012C1253.87 561.142 1299.26 662.794 1340.07 727.312C1340.07 727.312 1465.56 649.383 1509.66 607.224C1509.66 607.224 1370.3 435.077 1355.2 427.101L1236.85 484.651L1181.87 509.98Z" fill="#F6A915"/>
<path d="M1477.02 670.415C1473.96 683.397 1469.21 695.893 1462.78 707.643C1462.53 708.091 1462.47 708.707 1462.78 709.156C1469.28 718.364 1475.79 727.573 1482.31 736.782C1492.73 751.538 1503.17 766.295 1513.59 781.051C1515.99 784.432 1518.36 787.813 1520.76 791.194C1521.16 791.755 1521.79 792.072 1522.49 791.885C1535.06 788.598 1547.65 785.329 1560.22 782.041C1580.09 776.867 1599.96 771.675 1619.85 766.5C1624.46 765.305 1629.06 764.091 1633.68 762.895C1635.58 762.391 1634.78 759.496 1632.86 760C1620.29 763.288 1607.7 766.557 1595.13 769.844C1575.26 775.018 1555.39 780.211 1535.5 785.385C1530.9 786.58 1526.29 787.795 1521.67 788.99C1522.24 789.214 1522.83 789.457 1523.4 789.681C1516.9 780.472 1510.4 771.264 1503.87 762.055C1493.45 747.298 1483.01 732.542 1472.59 717.785C1470.19 714.404 1467.82 711.023 1465.42 707.643C1465.42 708.147 1465.42 708.651 1465.42 709.156C1471.98 697.201 1476.87 684.443 1479.97 671.218C1480.41 669.332 1477.46 668.529 1477.02 670.415Z" fill="#221660"/>
<path d="M1495.43 752.753L1464.09 708.39C1467.69 701.889 1470.77 695.128 1473.32 688.16C1475.39 682.501 1495.43 752.753 1495.43 752.753Z" fill="#221660"/>
<path d="M1467.88 511.213C1455.16 509.177 1446.12 506.674 1446.12 506.674L1455.95 440.905C1455.95 440.905 1457.15 485.716 1461.87 495.934C1465.29 503.312 1467.88 511.213 1467.88 511.213Z" fill="#FF6688"/>
<path d="M1061.97 468.755L1063.91 461.77L1065.98 453.681L1073.82 423.085C1073.82 423.085 1075.47 417.743 1081.56 412.961C1082.43 412.27 1083.38 411.616 1084.45 410.962C1084.45 410.962 1085.25 412.083 1086.14 414.063C1087.38 416.79 1088.8 421.142 1088.58 426.429C1088.35 431.547 1085.7 445.799 1083.42 457.286C1082.81 460.369 1082.22 463.245 1081.73 465.692C1080.78 470.362 1080.11 473.481 1080.11 473.481C1080.11 473.481 1074.48 476.246 1069.65 475.461C1064.79 474.695 1061.97 468.755 1061.97 468.755Z" fill="#F6A915"/>
<path d="M1088.56 426.447C1088.79 421.18 1087.36 416.809 1086.12 414.082C1085.23 412.102 1084.43 410.981 1084.43 410.981C1083.37 411.616 1082.42 412.289 1081.54 412.98C1075.46 417.762 1073.8 423.104 1073.8 423.104L1078.29 420.152L1079.75 422.637L1083.21 420.545L1085.48 425.121L1087.47 422.898L1088.56 426.447Z" fill="#FCDE98"/>
<path d="M1086.12 414.082C1085.23 412.102 1084.43 410.981 1084.43 410.981C1083.37 411.616 1082.42 412.289 1081.54 412.98L1086.12 414.082Z" fill="black"/>
<path d="M1081.71 465.711C1082.21 463.264 1082.8 460.387 1083.4 457.305C1082.23 456.222 1079.83 454.317 1076.24 453.345C1071.48 452.056 1067.51 453.177 1065.99 453.681C1065.3 456.371 1064.6 459.08 1063.91 461.769L1081.71 465.711Z" fill="#3A4B73"/>
<path d="M1081.71 465.711C1080.76 470.381 1080.1 473.5 1080.1 473.5C1080.1 473.5 1074.47 476.264 1069.64 475.48C1064.81 474.695 1061.99 468.756 1061.99 468.756L1063.93 461.77C1063.93 461.77 1067.01 458.743 1073.4 460.032C1080.06 461.415 1081.71 465.711 1081.71 465.711Z" fill="#F65015"/>
<path d="M1104.47 460.182C1108.18 448.265 1100.42 439.653 1094.36 430.052C1088.29 420.451 1084.58 421.441 1081.88 423.44C1079.56 425.158 1085.74 444.043 1082.55 450.095C1080.84 453.345 1079.5 456.745 1079.37 460.406C1079.09 467.467 1079.85 476.563 1085.42 478.002C1087.28 478.487 1087.17 459.715 1089.13 459.939C1096.89 460.854 1104.47 460.182 1104.47 460.182Z" fill="#FE9DA7"/>
<path d="M721.333 956.28H700.811C680.777 956.28 664.544 939.525 664.544 918.847C664.544 898.17 680.777 881.414 700.811 881.414H704.811C724.844 881.414 741.078 898.17 741.078 918.847V954.057C741.078 954.973 740.499 955.72 739.775 955.738C735.377 955.888 721.442 956.28 721.333 956.28Z" stroke="#F6A915" stroke-width="0.8265" stroke-miterlimit="10"/>
<path d="M943.917 877.94L941.944 891.856L953.834 887.765L943.917 877.94Z" fill="#FF6688"/>
<path d="M1313.43 330.997L1310.82 349.209L1326.4 343.848L1313.43 330.997Z" fill="#FF6688"/>
<path d="M3.97367 447.443L1.38574 465.673L16.9676 460.313L3.97367 447.443Z" fill="#FF6688"/>
<path d="M752.426 555.912L749.838 574.143L765.42 568.782L752.426 555.912Z" fill="#FF6688"/>
<path d="M686.463 267.656C689.532 267.656 692.019 265.089 692.019 261.922C692.019 258.755 689.532 256.187 686.463 256.187C683.395 256.187 680.907 258.755 680.907 261.922C680.907 265.089 683.395 267.656 686.463 267.656Z" fill="#F6A915"/>
<path opacity="0.5" d="M574.367 215.261C576.276 215.261 577.823 213.664 577.823 211.694C577.823 209.723 576.276 208.126 574.367 208.126C572.458 208.126 570.91 209.723 570.91 211.694C570.91 213.664 572.458 215.261 574.367 215.261Z" fill="white"/>
<path d="M920.099 722.698C922.977 722.698 925.311 720.289 925.311 717.318C925.311 714.347 922.977 711.939 920.099 711.939C917.22 711.939 914.887 714.347 914.887 717.318C914.887 720.289 917.22 722.698 920.099 722.698Z" fill="#F6A915"/>
<path d="M252.071 846.391C254.95 846.391 257.283 843.983 257.283 841.011C257.283 838.04 254.95 835.632 252.071 835.632C249.193 835.632 246.859 838.04 246.859 841.011C246.859 843.983 249.193 846.391 252.071 846.391Z" fill="#F6A915"/>
<path d="M1564.96 -9L1580.45 -6.60907L1576.93 5.14009L1590.52 7.56837L1588.53 20.4383L1601.74 22.1007L1598.95 33.4203" stroke="#FF6688" stroke-miterlimit="10"/>
<path d="M909.286 533.257L894.648 541.98L903.1 557.089L917.738 548.366L909.286 533.257Z" fill="#23B3AB"/>
<path d="M853.181 264.598L844.515 269.763L849.519 278.708L858.185 273.544L853.181 264.598Z" fill="white"/>
<path d="M831.91 388.865L838.968 392.657L835.385 397.681L841.52 401.193L838.498 407.021L844.578 410.084L841.411 415.053" stroke="white" stroke-width="0.8029" stroke-miterlimit="10"/>
<path d="M-16.0605 37.4175L-6.23368 38.8558L-8.42346 46.3088L0.190888 47.7844L-1.02164 55.9285L7.35745 56.9185L5.6382 64.11" stroke="white" stroke-miterlimit="10"/>
<path d="M1245.47 919.445L1350.92 862.661C1350.92 862.661 1368.57 868.077 1376.91 882.591C1385.25 897.105 1384.33 920.734 1390.79 926.45C1403.71 937.863 1431.51 935.565 1437.21 976.491L1338.24 1040C1338.24 1040 1330.13 1025.28 1323.83 1022.05C1313.72 1016.88 1295.85 1013.55 1284.83 999.653C1275.98 988.502 1277.85 962.276 1270.28 945.166C1262.52 927.701 1245.47 919.445 1245.47 919.445Z" fill="#FFF9E1"/>
<path d="M1281.85 930.148C1290.97 926.113 1299.47 920.211 1307.93 914.906C1318.78 908.107 1329.53 901.139 1340.48 894.49C1344.52 892.043 1348.55 889.502 1352.81 887.485C1355.32 886.29 1353.13 882.46 1350.64 883.656C1341.6 887.971 1333.15 893.817 1324.67 899.141C1313.83 905.959 1303.06 912.907 1292.09 919.482C1288.05 921.892 1283.98 924.395 1279.68 926.319C1277.14 927.458 1279.33 931.269 1281.85 930.148Z" fill="#D9C693"/>
<path d="M1288.96 946.679C1298.08 942.645 1306.59 936.742 1315.04 931.437C1325.9 924.638 1336.65 917.671 1347.59 911.021C1351.63 908.574 1355.67 906.033 1359.92 904.016C1362.43 902.821 1360.24 898.991 1357.75 900.187C1348.72 904.502 1340.26 910.348 1331.78 915.672C1320.94 922.49 1310.17 929.438 1299.2 936.013C1295.17 938.423 1291.09 940.926 1286.79 942.85C1284.25 943.971 1286.44 947.8 1288.96 946.679Z" fill="#D9C693"/>
<path d="M1296.07 966.871C1305.19 962.837 1313.7 956.934 1322.15 951.629C1333.01 944.83 1343.76 937.863 1354.71 931.213C1358.74 928.766 1362.78 926.226 1367.03 924.208C1369.55 923.013 1367.36 919.184 1364.86 920.379C1355.83 924.694 1347.38 930.54 1338.89 935.864C1328.05 942.682 1317.28 949.63 1306.31 956.205C1302.28 958.615 1298.21 961.118 1293.9 963.042C1291.38 964.163 1293.56 967.992 1296.07 966.871Z" fill="#D9C693"/>
<path d="M1304.05 988.464C1313.17 984.43 1321.68 978.527 1330.13 973.222C1340.99 966.423 1351.74 959.456 1362.69 952.806C1366.72 950.359 1370.76 947.819 1375.01 945.801C1377.53 944.606 1375.34 940.777 1372.84 941.972C1363.81 946.287 1355.36 952.134 1346.87 957.457C1336.03 964.275 1325.26 971.224 1314.3 977.799C1310.26 980.208 1306.19 982.711 1301.88 984.635C1299.35 985.756 1301.54 989.585 1304.05 988.464Z" fill="#D9C693"/>
<path d="M1323.98 997.711C1333.1 993.676 1341.6 987.773 1350.05 982.468C1360.91 975.669 1371.66 968.702 1382.61 962.052C1386.65 959.605 1390.68 957.065 1394.94 955.047C1397.45 953.852 1395.26 950.023 1392.76 951.218C1383.73 955.533 1375.28 961.38 1366.79 966.703C1355.95 973.521 1345.19 980.47 1334.22 987.045C1330.18 989.454 1326.11 991.957 1321.8 993.881C1319.27 995.002 1321.46 998.831 1323.98 997.711Z" fill="#D9C693"/>
<path d="M1343.9 1010.06C1353.02 1006.02 1361.53 1000.12 1369.98 994.815C1380.84 988.016 1391.59 981.049 1402.54 974.399C1406.58 971.952 1410.61 969.412 1414.86 967.394C1417.38 966.199 1415.19 962.37 1412.69 963.565C1403.66 967.88 1395.21 973.727 1386.72 979.05C1375.88 985.868 1365.11 992.817 1354.15 999.392C1350.11 1001.8 1346.04 1004.3 1341.73 1006.23C1339.2 1007.35 1341.39 1011.18 1343.9 1010.06Z" fill="#D9C693"/>
<path d="M1105.16 868.19C1100.82 866.546 1098 862.735 1099.19 858.121L1100.51 853.078L1111.5 811.592C1111.81 810.434 1112.44 809.406 1113.34 808.622L1120.17 802.757L1121.9 801.262C1122.75 800.534 1124.04 800.889 1124.44 801.953L1125.25 804.176L1128.04 811.779C1128.45 812.899 1128.51 814.113 1128.22 815.272L1117.69 856.907L1116.28 862.586C1115.86 864.267 1115.08 865.873 1113.9 867.106C1112.11 868.974 1109.85 869.59 1105.98 868.451C1105.69 868.376 1105.42 868.302 1105.16 868.19Z" stroke="#CDD0C4" stroke-miterlimit="10"/>
<path d="M1125.25 804.176L1124.44 801.953C1124.04 800.889 1122.75 800.534 1121.9 801.262L1120.17 802.757C1120.17 802.757 1120.4 803.896 1121.97 804.214C1123.53 804.568 1125.25 804.176 1125.25 804.176Z" fill="#CDD0C4"/>
<path d="M1117.67 856.907L1116.2 862.866C1115.77 864.584 1114.9 866.172 1113.63 867.386C1111.88 869.049 1109.65 869.553 1105.96 868.47C1105.69 868.395 1105.42 868.302 1105.16 868.208C1100.82 866.564 1098 862.754 1099.19 858.14L1100.51 853.097C1100.51 853.097 1104.8 851.023 1108.09 851.509C1115.62 852.648 1117.67 856.907 1117.67 856.907Z" stroke="#CDD0C4" stroke-miterlimit="10"/>
<path d="M1101.4 860.793C1103.08 859.392 1110.52 858.532 1113.56 864.454" stroke="#CDD0C4" stroke-miterlimit="10"/>
<path d="M1113.34 812.32L1116.16 813.927L1120.09 813.123L1123.37 815.234L1126.35 814.095" stroke="#CDD0C4" stroke-miterlimit="10"/>
<path d="M1104.02 845.532C1104.02 845.532 1112.8 841.497 1118.9 850.052" stroke="#CDD0C4" stroke-miterlimit="10"/>
<path d="M1116.55 842.935L1123.37 815.234" stroke="#CDD0C4" stroke-miterlimit="10"/>
<path d="M1108.56 844.878L1115.39 817.177" stroke="#CDD0C4" stroke-miterlimit="10"/>
<path d="M1659.45 841.123C1663.21 846.166 1663.76 852.517 1659.21 856.832L1654.25 861.539L1600.6 913.448C1599.46 914.532 1598.03 915.223 1596.49 915.428L1584.76 916.997L1581.76 917.408C1580.29 917.595 1579.1 916.25 1579.39 914.774L1580 911.692L1582.14 901.083C1582.44 899.532 1583.22 898.113 1584.33 897.029L1637.6 844.653L1643.11 839.292C1644.74 837.704 1646.71 836.472 1648.9 835.949C1652.19 835.164 1655.18 836.154 1658.74 840.282C1659 840.544 1659.23 840.843 1659.45 841.123Z" stroke="#FF6688" stroke-miterlimit="10"/>
<path d="M1580 911.674L1579.39 914.756C1579.1 916.251 1580.29 917.596 1581.76 917.39L1584.76 916.979C1584.76 916.979 1585.27 915.522 1583.73 914.009C1582.19 912.496 1580 911.674 1580 911.674Z" fill="#FF6688"/>
<path d="M1637.61 844.635L1643.36 839.031C1645.03 837.406 1647.11 836.267 1649.37 835.837C1652.48 835.258 1655.34 836.342 1658.74 840.264C1659 840.563 1659.23 840.843 1659.45 841.142C1663.21 846.185 1663.76 852.536 1659.21 856.851L1654.26 861.558C1654.26 861.558 1647.99 860.737 1644.65 857.767C1636.95 850.949 1637.61 844.635 1637.61 844.635Z" stroke="#FF6688" stroke-miterlimit="10"/>
<path d="M1658.58 852.238C1655.72 852.574 1646.76 848.091 1647.43 839.181" stroke="#FF6688" stroke-miterlimit="10"/>
<path d="M1599 911.264L1596.94 907.378L1591.98 905.417L1589.74 900.635L1585.61 899.72" stroke="#FF6688" stroke-miterlimit="10"/>
<path d="M1645.1 867.48C1645.1 867.48 1632.45 865.574 1631.49 851.453" stroke="#FF6688" stroke-miterlimit="10"/>
<path d="M1629.23 861.185L1589.74 900.635" stroke="#FF6688" stroke-miterlimit="10"/>
<path d="M1639.54 864.865L1600.05 904.315" stroke="#FF6688" stroke-miterlimit="10"/>
<path d="M1709.27 415.221H1606.23L1590.55 425.588L1589.52 415.221C1585.52 415.221 1582.28 411.878 1582.28 407.75V380.048C1582.28 375.92 1585.52 372.577 1589.52 372.577H1709.27C1713.27 372.577 1716.51 375.92 1716.51 380.048V407.75C1716.51 411.878 1713.27 415.221 1709.27 415.221Z" stroke="#CDD0C4" stroke-width="1.8191" stroke-miterlimit="10"/>
<path d="M1600.11 388.678H1700.57" stroke="#CDD0C4" stroke-width="1.8191" stroke-miterlimit="10"/>
<path d="M1600.11 400.091H1700.57" stroke="#CDD0C4" stroke-width="1.8191" stroke-miterlimit="10"/>
<path d="M944.511 199.646H970.246L978.914 205.38L979.494 199.646C981.701 199.646 983.493 197.796 983.493 195.518V180.201C983.493 177.922 981.701 176.073 979.494 176.073H944.511C942.303 176.073 940.512 177.922 940.512 180.201V195.518C940.512 197.796 942.303 199.646 944.511 199.646Z" stroke="#CDD0C4" stroke-width="1.3631" stroke-miterlimit="10"/>
<path d="M973.63 184.983H949.325" stroke="#CDD0C4" stroke-width="1.3631" stroke-miterlimit="10"/>
<path d="M973.63 191.277H949.325" stroke="#CDD0C4" stroke-width="1.3631" stroke-miterlimit="10"/>
<path d="M533.429 951.031H467.247C462.433 951.031 458.542 947.015 458.542 942.047V903.493C458.542 898.524 462.433 894.508 467.247 894.508H533.429C538.243 894.508 542.134 898.524 542.134 903.493V942.047C542.134 947.015 538.243 951.031 533.429 951.031Z" stroke="#CDD0C4" stroke-width="1.4592" stroke-miterlimit="10"/>
<path d="M469.436 940.721C469.436 940.721 486.32 913.972 488.673 913.972C491.026 913.972 511.458 941.131 511.458 941.131L469.436 940.721Z" fill="#30B47A"/>
<path d="M501.468 922.863L514.606 939.917H530.405V930.186C530.405 930.186 515.584 915.784 511.602 913.15C510.372 914.495 501.468 923.629 501.468 922.863Z" fill="#30B47A"/>
<path d="M478.123 913.019C480.562 913.019 482.539 910.979 482.539 908.462C482.539 905.945 480.562 903.904 478.123 903.904C475.684 903.904 473.707 905.945 473.707 908.462C473.707 910.979 475.684 913.019 478.123 913.019Z" fill="#F6A915"/>
<g opacity="0.15">
<path opacity="0.15" d="M91.7087 894.994H18.4506C13.13 894.994 8.80469 890.548 8.80469 885.038V842.375C8.80469 836.883 13.1119 832.419 18.4506 832.419H91.7087C97.0293 832.419 101.355 836.865 101.355 842.375V885.038C101.355 890.548 97.0293 894.994 91.7087 894.994Z" stroke="white" stroke-width="2.2139" stroke-miterlimit="10"/>
<path opacity="0.15" d="M22.8122 883.581C21.9797 883.581 21.473 882.61 21.9254 881.9C25.9249 875.643 39.9323 853.956 42.1763 853.956C44.7824 853.956 67.386 884.029 67.386 884.029L22.8122 883.581Z" stroke="white" stroke-width="2.2139" stroke-miterlimit="10"/>
<path opacity="0.15" d="M53.1973 865.126L67.7475 883.992L87.2203 883.6C87.7994 883.581 88.2519 883.114 88.2519 882.516L88.3604 872.43C88.3604 872.093 88.2338 871.776 87.9804 871.57C85.483 869.497 71.7652 858.122 66.2274 854.031C65.413 853.433 64.3271 853.526 63.6213 854.274C60.5448 857.505 53.1973 865.126 53.1973 865.126Z" stroke="white" stroke-width="2.2139" stroke-miterlimit="10"/>
<path opacity="0.15" d="M30.4859 852.91C33.1845 852.91 35.3722 850.652 35.3722 847.867C35.3722 845.081 33.1845 842.823 30.4859 842.823C27.7873 842.823 25.5996 845.081 25.5996 847.867C25.5996 850.652 27.7873 852.91 30.4859 852.91Z" stroke="white" stroke-width="2.2139" stroke-miterlimit="10"/>
</g>
<path d="M1494.24 614.957C1496.32 614.957 1498 613.217 1498 611.072C1498 608.926 1496.32 607.186 1494.24 607.186C1492.16 607.186 1490.47 608.926 1490.47 611.072C1490.47 613.217 1492.16 614.957 1494.24 614.957Z" stroke="#221660" stroke-miterlimit="10"/>
<path d="M1178.17 623.25C1180.25 623.25 1181.93 621.511 1181.93 619.365C1181.93 617.219 1180.25 615.48 1178.17 615.48C1176.09 615.48 1174.4 617.219 1174.4 619.365C1174.4 621.511 1176.09 623.25 1178.17 623.25Z" stroke="#221660" stroke-miterlimit="10"/>
<path d="M953.417 235.715C955.495 235.715 957.181 233.975 957.181 231.83C957.181 229.684 955.495 227.944 953.417 227.944C951.338 227.944 949.652 229.684 949.652 231.83C949.652 233.975 951.338 235.715 953.417 235.715Z" stroke="#221660" stroke-miterlimit="10"/>
<path d="M15.0859 768.406L21.2933 786.693" stroke="white" stroke-miterlimit="10"/>
<path d="M10.2539 781.481L26.3787 774.514" stroke="white" stroke-miterlimit="10"/>
<path d="M566.548 89.196L572.737 107.502" stroke="white" stroke-miterlimit="10"/>
<path d="M561.698 102.271L577.841 95.3041" stroke="white" stroke-miterlimit="10"/>
<path d="M695.293 672.899L701.5 691.205" stroke="white" stroke-miterlimit="10"/>
<path d="M690.443 685.975L706.586 679.008" stroke="white" stroke-miterlimit="10"/>
<path d="M1374.23 214.047L1380.44 232.334" stroke="#F6A915" stroke-miterlimit="10"/>
<path d="M1369.4 227.123L1385.53 220.155" stroke="#F6A915" stroke-miterlimit="10"/>
<path d="M1263.5 818.223L1269.7 836.51" stroke="#F6A915" stroke-miterlimit="10"/>
<path d="M1258.65 831.298L1274.79 824.331" stroke="#F6A915" stroke-miterlimit="10"/>
<path d="M1582.3 509.719L1588.51 528.024" stroke="#F6A915" stroke-miterlimit="10"/>
<path d="M1577.47 522.794L1593.59 515.827" stroke="#F6A915" stroke-miterlimit="10"/>
<path d="M585.605 821.118L591.813 839.424" stroke="#23B3AB" stroke-miterlimit="10"/>
<path d="M580.756 834.194L596.899 827.226" stroke="#23B3AB" stroke-miterlimit="10"/>
<path d="M1134.01 276.099C1157.19 276.099 1175.98 256.706 1175.98 232.782C1175.98 208.859 1157.19 189.465 1134.01 189.465C1110.83 189.465 1092.04 208.859 1092.04 232.782C1092.04 256.706 1110.83 276.099 1134.01 276.099Z" fill="#F6A915"/>
<path d="M1137.05 270.495C1160.23 270.495 1179.02 251.102 1179.02 227.179C1179.02 203.255 1160.23 183.862 1137.05 183.862C1113.87 183.862 1095.08 203.255 1095.08 227.179C1095.08 251.102 1113.87 270.495 1137.05 270.495Z" stroke="#F67215" stroke-width="1.3979" stroke-miterlimit="10"/>
<path d="M1155.35 225.684C1155.35 233.586 1151.96 240.198 1145.66 243.691C1142.82 245.26 1140.23 257.308 1140.23 257.308L1127.95 257.046C1127.95 257.046 1125.92 244.251 1123.77 242.701C1118.55 238.946 1115.13 232.726 1115.13 225.666C1115.13 214.215 1124.13 204.932 1135.22 204.932C1146.32 204.932 1155.35 214.234 1155.35 225.684Z" stroke="white" stroke-width="1.8593" stroke-miterlimit="10"/>
<path d="M1129.67 242.608L1126.48 223.854L1134.33 228.411L1141.95 223.854L1139 242.608" stroke="white" stroke-width="1.8593" stroke-miterlimit="10"/>
<path d="M1123.79 242.72H1145.67" stroke="white" stroke-width="1.8593" stroke-miterlimit="10"/>
<path d="M1127.46 249.706H1141.95" stroke="white" stroke-width="1.8593" stroke-miterlimit="10"/>
<path d="M1135.93 294.946C1136.8 294.946 1136.8 293.546 1135.93 293.546C1135.04 293.546 1135.04 294.946 1135.93 294.946Z" fill="#221660"/>
<path d="M716.339 917.857C716.593 923.741 714.294 928.803 709.716 931.624C707.653 932.894 706.114 941.972 706.114 941.972L696.939 942.215C696.939 942.215 695.003 932.745 693.356 931.661C689.338 929.046 686.587 924.526 686.352 919.258C685.972 910.722 692.378 903.474 700.649 903.082C708.956 902.709 715.977 909.302 716.339 917.857Z" stroke="#EFDDC9" stroke-width="0.9087" stroke-miterlimit="10"/>
<path d="M696.432 931.325L695.075 917.166L701.102 920.286L706.621 916.624L706.676 931.474" stroke="#EFDDC9" stroke-width="0.9087" stroke-miterlimit="10"/>
<path d="M694.243 932.259L709.101 931.96" stroke="#EFDDC9" stroke-width="0.9087" stroke-miterlimit="10"/>
<path d="M696.343 936.742L707.147 936.238" stroke="#EFDDC9" stroke-width="0.9087" stroke-miterlimit="10"/>
<g opacity="0.14">
<path opacity="0.14" d="M492.441 746.271C502.236 746.271 510.176 738.075 510.176 727.965C510.176 717.856 502.236 709.66 492.441 709.66C482.646 709.66 474.705 717.856 474.705 727.965C474.705 738.075 482.646 746.271 492.441 746.271Z" stroke="white" stroke-width="3.5194" stroke-miterlimit="10"/>
<path opacity="0.14" d="M504.801 743.189L519.514 758.375L504.801 743.189Z" stroke="white" stroke-width="3.5194" stroke-miterlimit="10"/>
</g>
<path opacity="0.14" d="M-25 215.803L-11.6441 229.588L27.8081 188.849" stroke="white" stroke-width="4.6663" stroke-miterlimit="10"/>
<path d="M1270.75 230.036C1274.03 230.036 1276.69 227.293 1276.69 223.91C1276.69 220.526 1274.03 217.783 1270.75 217.783C1267.48 217.783 1264.82 220.526 1264.82 223.91C1264.82 227.293 1267.48 230.036 1270.75 230.036Z" fill="#CDD0C4"/>
</svg>
